<?xml version="1.0" encoding="utf-8"?>
<!-- Generator: Adobe Illustrator 26.0.3, SVG Export Plug-In . SVG Version: 6.00 Build 0)  -->
<svg version="1.0" id="Layer_1" xmlns="http://www.w3.org/2000/svg" xmlns:xlink="http://www.w3.org/1999/xlink" x="0px" y="0px"
	 viewBox="0 0 835.1 591.8" style="enable-background:new 0 0 835.1 591.8;" xml:space="preserve">
<style type="text/css">
	.st0{fill:#007CEB;}
	.st1{fill:#512DAB;}
	.st2{fill:#F60100;}
	.st3{fill:#5A5A57;}
</style>
<path class="st0" d="M118.8,245.6c14.4,0.1,28.8-0.1,43.2,0c-20.8,33.6-41.7,67.1-62.5,100.7c-14.5-0.1-29,0-43.5,0
	c0.1-0.3,0.3-0.7,0.4-1c15.9-25.6,31.9-51.2,47.9-76.8C109.2,260.9,113.9,253.2,118.8,245.6z"/>
<path class="st1" d="M162,245.6c0.3-0.4,0.9-0.1,1.3-0.2c10.3,0,20.5-0.2,30.8-0.1c4.1,0.1,8.1,0.1,12.2,0.1
	c-20.7,33.7-41.7,67.1-62.5,100.8l-0.1,0.2c-14.7,0-29.4,0-44.2,0C120.4,312.8,141.2,279.2,162,245.6z"/>
<path class="st2" d="M206.3,245.4c14.6,0,29.2-0.2,43.8,0c-20.7,33.6-41.6,67.2-62.6,100.7c-14.6,0.1-29.2,0.2-43.8,0.1
	C164.6,312.6,185.6,279.1,206.3,245.4z"/>
<path class="st3" d="M253.9,245.7c14.6,0,29.3-0.3,44-0.1c0.3,11.4,0.1,22.7,0.2,34.1c0,0.5,0.1,1,0.6,1.1c0.8,0,1.2-0.9,1.6-1.5
	c6.7-11.2,13.2-22.5,19.8-33.7c12.5,0,25-0.1,37.5,0c0.3,20.5,0.2,41,0.3,61.5c0,13,0.1,26,0.1,39c-12.5,0-25,0.1-37.5,0.1
	c0-12-0.1-24-0.1-36.1c-0.1-0.9,0.3-2.4-0.6-2.7c-0.9,0-1.1,0.8-1.5,1.6c-6.7,12.4-13.3,24.8-20,37.1c-12.8,0.2-25.6,0.2-38.4,0.2
	c-0.2-13-0.1-26-0.3-39c0-0.6-0.3-0.9-0.5-0.8s-0.7,0.7-1,1.2c-7.5,12.9-15,25.8-22.5,38.7c-14.8,0.1-29.6,0-44.4,0
	c8.4-13.5,16.9-27,25.3-40.5c7.1-11.3,14.1-22.7,21.2-34C243,263.3,248.3,254.4,253.9,245.7z"/>
<path class="st3" d="M384.4,244.8h42c3.7,0,7.3,0.2,11,0.6c3.4,0.4,6.8,1,10.2,2c3.1,0.9,6,2.1,8.8,3.6c5.4,3,9.5,7.9,11.4,13.7
	c1.1,3.5,1.7,7.1,1.6,10.7c0,10.7-3.5,18.7-10.6,24.1s-17.5,8.1-31.5,8.1h-22.5v37.8h-20.4V244.8z M404.8,290.3h22.9
	c3.2,0,6.4-0.3,9.6-1c2.3-0.5,4.5-1.5,6.5-2.8c1.6-1.2,2.9-2.7,3.6-4.6c0.8-2,1.2-4.1,1.2-6.3c0.1-2.5-0.5-4.9-1.7-7
	c-1.2-1.8-2.8-3.2-4.6-4.1c-2.1-1.1-4.4-1.7-6.8-2c-2.7-0.3-5.4-0.5-8.1-0.5h-22.4L404.8,290.3z"/>
<path class="st3" d="M508.4,270.9c5.3-0.1,10.6,0.8,15.6,2.6c4.4,1.6,8.5,4.2,11.8,7.5c3.4,3.4,5.9,7.5,7.5,12
	c1.8,5.1,2.7,10.6,2.6,16c0.1,5.5-0.8,11-2.7,16.1c-1.6,4.5-4.2,8.6-7.6,12c-3.4,3.3-7.4,5.8-11.8,7.4c-10,3.4-20.8,3.4-30.7,0
	c-9.1-3.2-16.3-10.2-19.5-19.3c-3.6-10.5-3.6-21.8-0.1-32.3c1.6-4.5,4.2-8.6,7.6-12c3.4-3.3,7.4-5.8,11.9-7.5
	C498,271.7,503.2,270.8,508.4,270.9z M508.4,331.7c2.4,0,4.9-0.5,7.1-1.4c2.2-1,4-2.4,5.5-4.3c1.6-2.1,2.9-4.5,3.6-7.1
	c0.9-3.3,1.3-6.6,1.3-10c0.1-3.3-0.4-6.7-1.3-9.9c-0.7-2.6-1.9-5-3.6-7.2c-1.5-1.9-3.4-3.3-5.5-4.3c-4.5-1.9-9.7-1.9-14.2,0
	c-2.2,1-4.1,2.4-5.5,4.3c-1.6,2.1-2.9,4.6-3.6,7.2c-0.9,3.2-1.3,6.6-1.3,9.9c-0.1,3.4,0.4,6.7,1.3,10c0.7,2.6,1.9,5,3.6,7.1
	c1.5,1.8,3.4,3.3,5.5,4.3C503.6,331.3,506,331.8,508.4,331.7L508.4,331.7z"/>
<path class="st3" d="M653.8,272.6l-23.7,72.8h-17.5L599.6,304l-13.2,41.4h-17.7l-23.9-72.8h21.6l11.1,42.1l13.4-42.1h17l13.6,42.1
	l11.1-42.1L653.8,272.6z"/>
<path class="st3" d="M691.1,347c-5.4,0.1-10.7-0.8-15.8-2.5c-4.6-1.6-8.8-4.1-12.3-7.4c-3.5-3.4-6.3-7.5-8-12
	c-3.7-10.3-3.8-21.6-0.1-32c3.3-9,10.5-16.2,19.5-19.5c4.9-1.8,10.1-2.7,15.3-2.6c5.3-0.1,10.6,0.8,15.6,2.6
	c4.4,1.6,8.5,4.2,11.8,7.5c3.4,3.4,5.9,7.5,7.5,12c1.8,5.1,2.7,10.6,2.6,16v5.8h-54.6c0.4,2.6,1.2,5.1,2.4,7.5c1,2,2.4,3.8,4,5.3
	c1.6,1.4,3.4,2.5,5.5,3.2c2.1,0.7,4.3,1.1,6.5,1.1c1.8,0,3.5-0.3,5.2-0.8c1.7-0.5,3.3-1.3,4.7-2.4c1.4-1,2.6-2.3,3.4-3.8
	c0.9-1.6,1.4-3.4,1.4-5.2h20.6c-0.6,4.1-2,8.1-4.2,11.7c-2,3.3-4.6,6.3-7.7,8.6c-3.2,2.4-6.8,4.2-10.6,5.3
	C699.8,346.4,695.5,347,691.1,347z M706.2,299.5c-1.2-4.5-3.3-7.9-6.2-10.1c-6.2-4.4-14.4-4.4-20.6,0c-2.9,2.2-5,5.6-6.3,10.1H706.2
	z"/>
<path class="st3" d="M779,290.4c-2.2-0.6-4.2-1.1-6.1-1.5c-1.7-0.3-3.4-0.5-5.1-0.5c-2.5,0-5,0.6-7.2,1.8c-2.5,1.5-4.8,3.5-6.6,5.8
	v49.3h-19.5v-72.8H754v4.2c4.4-3.8,10-5.9,15.8-5.9c1.2,0,2.4,0.1,3.6,0.3c1.6,0.2,3.4,0.5,5.6,0.8L779,290.4z"/>
</svg>
