<?xml version="1.0" encoding="utf-8"?>
<!-- Generator: Adobe Illustrator 26.0.3, SVG Export Plug-In . SVG Version: 6.00 Build 0)  -->
<svg version="1.0" id="Layer_1" xmlns="http://www.w3.org/2000/svg" xmlns:xlink="http://www.w3.org/1999/xlink" x="0px" y="0px"
	 viewBox="0 0 1211.9 874.2" style="enable-background:new 0 0 1211.9 874.2;" xml:space="preserve">
<style type="text/css">
	.st0{clip-path:url(#SVGID_00000010268649857985962720000001915834114696787632_);}
	.st1{fill:#FFFFFF;}
	.st2{fill:#3F88C8;}
	.st3{fill:#183C6C;}
	.st4{fill:#CF192E;}
	.st5{fill:#1D1D1B;}
	.st6{fill:#9D9D9D;}
	.st7{fill:#1076BC;}
	.st8{fill:#686868;}
</style>
<g>
	<defs>
		<rect id="SVGID_1_" x="247.7" y="78.8" width="716.5" height="716.5"/>
	</defs>
	<clipPath id="SVGID_00000118385786405027246290000011971823251057470369_">
		<use xlink:href="#SVGID_1_"  style="overflow:visible;"/>
	</clipPath>
	<g style="clip-path:url(#SVGID_00000118385786405027246290000011971823251057470369_);">
		<path class="st1" d="M248.3,436.9c0-197.5,160.1-357.5,357.5-357.5s357.5,160.1,357.5,357.5S803.3,794.5,605.8,794.5
			S248.3,634.4,248.3,436.9z"/>
		<path class="st2" d="M605.8,79.4c197.5,0,357.5,160.1,357.5,357.6l-0.1,1.6H248.4l-0.1-1.6C248.3,239.5,408.4,79.4,605.8,79.4z"/>
		<path class="st1" d="M606.7,120.7v635.7C431.2,756.4,289,614.1,289,438.5S431.2,120.7,606.7,120.7z"/>
		<path class="st3" d="M606.7,120.7c175.6,0,318,142.3,318,317.8s-142.4,317.8-318,317.8V120.7z"/>
		<path class="st1" d="M605.8,159.6c154.1,0,279,124.9,279,279h-558C326.8,284.6,451.7,159.6,605.8,159.6z"/>
		<path class="st4" d="M326.8,438.7h558.1c0,153.9-124.9,278.7-279,278.7S326.8,592.6,326.8,438.7z"/>
		<path class="st5" d="M837.1,439.6C837.1,566.8,734,670,606.7,670S376.3,566.8,376.3,439.6s103.2-230.4,230.4-230.4
			S837.1,312.3,837.1,439.6z"/>
		<path class="st6" d="M795.7,320.8l8.7,14.5l-59.2,27.5l-8.4-14.5l28.8-37.6l-43.3,19.7l-12.2-11.3l39.8-52l12.1,11.7l-22.6,29.1
			l36.5-16.3l10.2,13.4L762,337L795.7,320.8z"/>
		<path class="st6" d="M371.9,439.6c0-129.7,105.1-234.8,234.8-234.8s234.8,105.1,234.8,234.8S736.4,674.4,606.7,674.4
			S371.9,569.3,371.9,439.6z M378.1,439.6c0,126.3,102.4,228.6,228.6,228.6s228.6-102.4,228.6-228.6S733,210.9,606.7,210.9
			S378.1,313.3,378.1,439.6L378.1,439.6z"/>
		<path class="st6" d="M463.8,436.2c0-79.8,64.8-144.5,144.6-144.5s144.7,64.7,144.7,144.5s-64.8,144.5-144.7,144.5
			S463.8,516,463.8,436.2z"/>
		<path class="st6" d="M630.1,283.1l17.3,2.2l-2.2-65.2l-22.2-2.8l-15,46.4l-15.4-46.1l-22.7,2.5l-2.5,65.4l17.6-2.8l1.2-42.2
			l13.4,42.6h15.7l13.4-42.6L630.1,283.1z"/>
		<path class="st7" d="M612.4,440.5h131.9c0,72.9-59.1,132-131.9,132V440.5z M604.5,299.6v132H472.6
			C472.6,358.7,531.7,299.6,604.5,299.6z"/>
		<path class="st1" d="M472.6,440.5h131.9v132C531.7,572.5,472.6,513.4,472.6,440.5z M612.4,299.6c72.9,0,131.9,59.1,131.9,132
			H612.4V299.6z"/>
		<path class="st6" d="M500.7,296.1c-6.9-5.7-15-4.2-22.1,0.2c1.2-3.3,1.2-6.9,0.1-10.3c-1.5-4-7.7-11.6-15.8-10.3
			c-5,0.8-8.6,1.9-14.7,9.2L416.7,325l50.9,40.5l34.7-43.6C509.3,313.5,508.7,303.4,500.7,296.1z M436.6,318.8l19.9-24.7
			c2-2.4,6.7-3.4,9.4-1.1c3,2.5,3,7.9,0.8,10.5l-19,24.2L436.6,318.8z M488.6,319.3l-20.2,25.1l-10.5-9l19.1-25
			c2.1-2.5,7.3-6,11.9-2.1C492,311.1,491.1,316.4,488.6,319.3L488.6,319.3z"/>
		<path class="st8" d="M606,795.3c-71.4,0.1-141.1-21.2-200.3-61.2c-57.6-38.9-102.6-93.6-129.7-157.6
			c-47.2-111.5-34.8-239.3,33-339.7c38.9-57.6,93.6-102.6,157.6-129.7c111.5-47.2,239.3-34.8,339.7,33
			C863.8,179,908.9,233.7,936,297.7c47.2,111.5,34.8,239.3-33,339.7c-38.9,57.6-93.6,102.6-157.6,129.7
			C701.3,785.8,653.9,795.4,606,795.3z M606,80.3c-196.8,0-356.9,160-356.9,356.8S409.2,793.9,606,793.9s356.8-160.1,356.8-356.8
			S802.7,80.2,606,80.3L606,80.3z"/>
		<path class="st6" d="M463.8,436.2c0-79.8,64.8-144.5,144.6-144.5s144.7,64.7,144.7,144.5s-64.8,144.5-144.7,144.5
			S463.8,516,463.8,436.2z M473.6,436.2c-0.1,74.5,60.2,134.9,134.7,135s134.9-60.2,135-134.7s-60.2-134.9-134.7-135
			c0,0-0.1,0-0.1,0C534,301.5,473.7,361.8,473.6,436.2C473.6,436.2,473.6,436.2,473.6,436.2z"/>
	</g>
</g>
</svg>
