<?xml version="1.0" encoding="utf-8"?>
<!-- Generator: Adobe Illustrator 24.3.0, SVG Export Plug-In . SVG Version: 6.00 Build 0)  -->
<svg version="1.1" id="Layer_1" xmlns="http://www.w3.org/2000/svg" xmlns:xlink="http://www.w3.org/1999/xlink" x="0px" y="0px"
	 viewBox="0 0 78.1 53" style="enable-background:new 0 0 78.1 53;" xml:space="preserve">
<style type="text/css">
	.st0{fill:#6F6F6F;}
	.st1{fill:#0066B1;}
</style>
<title>BMW-logo-grey-fallback-53px</title>
<desc>Created with Sketch.</desc>
<g id="BMW-logo-grey-fallback-53px">
	<g id="BMW-logo">
		<g id="BMW-logo-fallback">
			<g id="BMW_Grey-Colour_RGB-2">
				<g id="BMW_Grey-Colour_RGB">
					<path id="Shape" class="st0" d="M39.1,5c-11.9,0-21.5,9.6-21.5,21.5S27.2,48,39.1,48s21.5-9.6,21.5-21.5S50.9,5,39.1,5L39.1,5z
						 M59.2,26.5c0,11.1-9,20.1-20.1,20.1s-20.1-9-20.1-20.1s9-20.1,20.1-20.1S59.2,15.4,59.2,26.5z"/>
					<path id="Shape_1_" class="st0" d="M39.1,13.8v0.7l0,0c6.6,0,12.1,5.4,12.1,12.1h0.7C51.8,19.5,46.1,13.8,39.1,13.8L39.1,13.8
						 M39.1,38.6c-6.6,0-12.1-5.4-12.1-12.1h-0.7c0,7,5.7,12.7,12.7,12.7"/>
					<g id="Group" transform="translate(7.197531, 3.271605)">
						<path id="W_61_" class="st0" d="M42.2,14.1c0.3,0.3,0.7,0.8,0.9,1.1l4.4-2.7c-0.2-0.3-0.6-0.7-0.8-1l-2.8,1.8l-0.2,0.2
							l0.1-0.2l1.2-2.4L44.2,10l-2.4,1.2l-0.2,0.1l0.2-0.2l1.8-2.7c-0.3-0.3-0.6-0.5-1-0.8l-2.8,4.3c0.4,0.3,0.8,0.7,1.1,0.9
							l2.6-1.3l0.2-0.1l-0.1,0.2L42.2,14.1z"/>
						<path id="M_61_" class="st0" d="M32.3,8.7L33.5,6l0.1-0.2l0,0.2l0.1,3.5c0.4,0,0.8,0.1,1.3,0.2l-0.2-5.2
							c-0.6-0.1-1.2-0.1-1.8-0.1l-1.2,2.9l0,0.2l0-0.2l-1.2-2.9c-0.6,0-1.2,0.1-1.8,0.1l-0.2,5.2c0.4-0.1,0.9-0.1,1.3-0.2L30,6
							l0-0.2L30,6l1.2,2.6H32.3z"/>
						<path id="B_x5F_22d_61_" class="st0" d="M22.7,12.8c0.7-0.7,1.1-1.6,0.4-2.3c-0.4-0.4-1-0.5-1.5-0.3l-0.1,0l0,0
							c0.1-0.2,0.1-0.9-0.4-1.3c-0.3-0.2-0.6-0.3-1-0.3c-0.6,0.1-1.1,0.5-2.5,2c-0.4,0.5-1,1.2-1.4,1.6l3.7,3.5
							C21.2,14.4,21.7,13.9,22.7,12.8z M17.8,12c0.7-0.9,1.5-1.7,1.9-2.1c0.1-0.1,0.2-0.2,0.4-0.2c0.2-0.1,0.5,0.1,0.6,0.4
							c0.1,0.2-0.1,0.5-0.3,0.7c-0.4,0.4-1.8,2-1.8,2L17.8,12z M19.3,13.4c0,0,1.4-1.5,1.9-2c0.2-0.2,0.3-0.3,0.4-0.4
							c0.2-0.1,0.3-0.1,0.5,0c0.2,0.1,0.2,0.3,0.2,0.5c0,0.2-0.2,0.4-0.4,0.6c-0.2,0.2-1.9,2-1.9,2L19.3,13.4z"/>
					</g>
					<path id="Path" class="st1" d="M39.1,13.8v12.7H26.3C26.3,19.5,32,13.8,39.1,13.8z"/>
					<path id="Path_1_" class="st1" d="M51.8,26.5c0,7-5.7,12.7-12.7,12.7V26.5H51.8z"/>
				</g>
			</g>
		</g>
	</g>
</g>
</svg>
